<svg width="82" height="40" viewBox="0 0 82 40" fill="none" xmlns="http://www.w3.org/2000/svg">
<path d="M70.0592 7.55397C70.0592 8.74612 69.5415 9.5974 68.7412 10.1461C67.9428 10.6966 66.8637 10.9518 65.7463 10.9518C64.7364 10.9518 63.8468 10.7659 63.1013 10.3794C62.3557 9.99297 61.7651 9.41147 61.3531 8.61488C61.3331 8.58024 61.3313 8.53832 61.344 8.50004C61.3568 8.46176 61.3823 8.42894 61.4169 8.41072L62.6219 7.72349L63.8268 7.03627C63.8997 6.99435 63.9963 7.01987 64.0419 7.0946C64.0455 7.1019 64.0492 7.10372 64.0492 7.11101C64.1968 7.45371 64.4064 7.71803 64.6926 7.89667C64.977 8.07531 65.3252 8.16827 65.7517 8.16827C66.1254 8.16827 66.4043 8.10994 66.5921 8.00239C66.7798 7.89302 66.8728 7.73443 66.8728 7.52662C66.8728 6.95789 65.5968 6.823 64.3208 6.38186C63.0448 5.94073 61.7688 5.19518 61.7688 3.40147C61.7688 2.27312 62.2445 1.42184 62.9937 0.853102C63.7411 0.284367 64.7546 0 65.8338 0C66.6468 0 67.416 0.174995 68.0905 0.52134C68.7868 0.878623 69.3719 1.41637 69.7912 2.07807C69.8131 2.1127 69.8204 2.15828 69.8113 2.2002C69.7985 2.24213 69.773 2.27676 69.7347 2.29681L68.5462 2.93664L67.3559 3.57647C67.3212 3.59652 67.2793 3.59834 67.241 3.58923C67.2027 3.58011 67.1699 3.55459 67.148 3.51814C67.004 3.28481 66.8345 3.08612 66.6176 2.9494C66.4007 2.81269 66.1436 2.73248 65.8319 2.73248C65.564 2.73248 65.3452 2.78352 65.1958 2.88195C65.0463 2.97492 64.9588 3.13716 64.9624 3.31397C64.9624 3.90458 66.2384 4.00484 67.5144 4.43322C68.7868 4.85794 70.0592 5.63449 70.0592 7.55397Z" fill="#100118"/>
<path d="M55.5522 0C52.5299 0 50.0781 2.45176 50.0781 5.47407C50.0781 8.49639 52.5299 10.9481 55.5522 10.9481C58.5745 10.9481 61.0263 8.49639 61.0263 5.47407C61.0263 4.02307 60.4502 2.63222 59.424 1.60595C58.3941 0.574204 57.0032 0 55.5522 0ZM55.5522 7.98963C54.1613 7.98963 53.0366 6.86492 53.0366 5.47407C53.0366 4.08322 54.1613 2.95852 55.5522 2.95852C56.943 2.95852 58.0678 4.08322 58.0678 5.47407C58.0678 6.14307 57.8016 6.78107 57.3331 7.25137C56.8592 7.72349 56.2157 7.98963 55.5522 7.98963Z" fill="#100118"/>
<path d="M31.8061 0C28.7838 0 26.332 2.45176 26.332 5.47407C26.332 8.49639 28.7838 10.9481 31.8061 10.9481C34.8284 10.9481 37.2802 8.49639 37.2802 5.47407C37.2802 4.02307 36.7042 2.63222 35.6779 1.60595C34.648 0.574204 33.2571 0 31.8061 0ZM31.8061 7.98963C30.4153 7.98963 29.2905 6.86492 29.2905 5.47407C29.2905 4.08322 30.4153 2.95852 31.8061 2.95852C33.197 2.95852 34.3217 4.08322 34.3217 5.47407C34.3217 6.14307 34.0555 6.78107 33.587 7.25137C33.1131 7.72349 32.4715 7.98963 31.8061 7.98963Z" fill="#100118"/>
<path d="M43.8626 0C42.9858 0 42.1236 0.207807 41.3471 0.614307V0.156767C41.3471 0.0710919 41.276 0 41.1903 0H38.5398C38.456 0.00364574 38.3867 0.0710919 38.3867 0.156767V14.6632C38.3867 14.7488 38.4578 14.8199 38.5398 14.8199H41.1866C41.2723 14.8199 41.3434 14.7488 41.3434 14.6632V10.3375C44.0285 11.7283 47.3315 10.6765 48.7187 7.99145C50.1096 5.30637 49.0578 2.00333 46.3727 0.61613C45.6016 0.211453 44.7394 0 43.8626 0ZM45.4102 7.49199C45.3136 7.5649 45.2115 7.6287 45.104 7.68704C44.9946 7.74537 44.8834 7.79641 44.7686 7.83651C44.7102 7.85839 44.6537 7.87844 44.5936 7.89484C44.5334 7.91125 44.4715 7.92765 44.4113 7.94041C44.3694 7.94953 44.3274 7.95682 44.2873 7.96229C44.2454 7.96958 44.2035 7.97505 44.1597 7.97869C44.1142 7.98234 44.0759 7.98599 44.0321 7.98781C43.9866 7.99145 43.9465 7.99145 43.9009 7.99145C43.7733 7.99145 43.6457 7.98234 43.5181 7.96229C43.3941 7.94224 43.272 7.91489 43.1535 7.87844C43.0733 7.85292 42.9968 7.82375 42.9238 7.79276C42.8509 7.76177 42.7744 7.72532 42.7033 7.68704C41.8903 7.2459 41.3853 6.39827 41.3853 5.47407C41.3853 5.01289 41.5093 4.56264 41.7499 4.1689C41.9832 3.78792 42.3095 3.47439 42.7033 3.26111C42.7744 3.22283 42.8473 3.1882 42.9238 3.15539C43.1152 3.07518 43.3139 3.01867 43.5181 2.98586C43.6457 2.96581 43.7733 2.95669 43.9009 2.95669C43.9465 2.95669 43.9866 2.95669 44.0321 2.96034C44.0777 2.96398 44.1178 2.96581 44.1597 2.96945C44.2017 2.9731 44.2454 2.97857 44.2873 2.98586C44.3293 2.99315 44.3712 2.99862 44.4113 3.00773C44.4715 3.02049 44.5334 3.0369 44.5936 3.0533C44.6537 3.06971 44.7121 3.08794 44.7686 3.11164C44.8834 3.15356 44.9964 3.2046 45.104 3.26111C46.3253 3.92281 46.7792 5.44855 46.1175 6.66988C45.9443 6.99252 45.7037 7.27507 45.4102 7.49199Z" fill="#100118"/>
<path d="M25.6303 0.0109372H25.623H25.6139C25.5665 0.00729147 25.5209 0.00729147 25.4735 0.00364574C25.4262 3.39536e-10 25.3769 0.00364574 25.3295 0.00364574C24.4527 0.00364574 23.5905 0.211453 22.814 0.614307V0.156767C22.814 0.0710919 22.7429 0 22.6572 0H20.0122C19.9266 0 19.8555 0.0710919 19.8555 0.156767V10.795C19.8555 10.8807 19.9266 10.9518 20.0086 10.9518H22.6554C22.7411 10.9518 22.8122 10.8807 22.8122 10.795V5.53605C22.8122 4.8707 23.0674 4.22905 23.5213 3.74599C23.9752 3.26293 24.6022 2.97857 25.2639 2.96216H25.4298C25.4845 2.96216 25.5392 2.96945 25.592 2.97492C25.6777 2.98404 25.7524 2.92388 25.7616 2.83821V2.81815V0.164058C25.7616 0.125778 25.7452 0.0874977 25.7196 0.0583318C25.7032 0.0291659 25.6686 0.0145829 25.6303 0.0109372Z" fill="#100118"/>
<path d="M70.5469 5.47225C70.5469 8.49457 72.9968 10.9463 76.0209 10.9463V7.98963C74.6301 7.98963 73.5054 6.86492 73.5054 5.47407C73.5054 4.08322 74.6301 2.95852 76.0209 2.95852V0C72.9986 0 70.5469 2.45176 70.5469 5.47225Z" fill="#100118"/>
<path d="M76.0234 7.9914V10.9481C77.0023 10.9517 77.9611 10.6892 78.8051 10.1898L77.325 7.625C76.9312 7.86562 76.4828 7.99322 76.0234 7.9914Z" fill="#692BE1"/>
<path d="M77.3203 7.63201L78.8005 10.1968C79.639 9.70096 80.328 8.99187 80.802 8.14423L78.2372 6.66406C78.0258 7.06145 77.7104 7.39503 77.3203 7.63201Z" fill="#8633FF"/>
<path d="M78.1562 4.14423C78.3896 4.51427 78.5208 4.94083 78.5336 5.37467H81.4939C81.4775 4.41948 81.2132 3.48253 80.721 2.66406L78.1562 4.14423Z" fill="#F73963"/>
<path d="M77.2344 3.26608C77.4422 3.38092 77.6299 3.52128 77.7976 3.68898C77.9325 3.82388 78.0528 3.97335 78.1531 4.13741L80.7179 2.65724C80.2293 1.84424 79.5385 1.16978 78.7127 0.703125L77.2344 3.26608Z" fill="#FFAC00"/>
<path d="M78.2383 6.65465L80.8031 8.13482C81.2569 7.32 81.4976 6.40492 81.4939 5.47161V5.375H78.5336C78.5336 5.40781 78.5372 5.4388 78.5372 5.47161C78.5354 5.88176 78.4333 6.29008 78.2383 6.65465Z" fill="#D3264E"/>
<path d="M76.0234 0V2.95669C76.4482 2.95669 76.8674 3.06606 77.2393 3.27023L78.7195 0.70545C77.8973 0.244264 76.9659 0 76.0234 0Z" fill="#FFCA00"/>
<path d="M9.77057 39.4102C8.36879 39.4102 7.06726 39.1531 5.86599 38.6391C4.6629 38.125 3.62933 37.4305 2.76711 36.5555C1.90307 35.6806 1.22679 34.6525 0.736439 33.4731C0.244264 32.2955 0 31.0395 0 29.7089V29.6396C0 28.3089 0.244264 27.0475 0.734616 25.8571C1.22497 24.6668 1.90125 23.6278 2.76529 22.74C3.62933 21.8523 4.66107 21.1523 5.86417 20.6383C7.06726 20.1242 8.39066 19.8672 9.83984 19.8672C11.6135 19.8672 13.0845 20.1479 14.253 20.7075C15.4196 21.2671 16.4477 22.0382 17.3355 23.0189L14.078 26.5207C13.471 25.8899 12.8458 25.3887 12.2041 25.015C11.5625 24.6413 10.7622 24.4553 9.80521 24.4553C9.1271 24.4553 8.51462 24.5902 7.96593 24.8582C7.41725 25.1262 6.93784 25.4944 6.52951 25.961C6.12119 26.4277 5.80584 26.9709 5.58345 27.5889C5.36106 28.2068 5.24986 28.8667 5.24986 29.5667V29.6359C5.24986 30.3596 5.36106 31.0359 5.58345 31.6666C5.80584 32.2973 6.12666 32.846 6.54592 33.3127C6.967 33.7793 7.46829 34.1475 8.05161 34.4155C8.63493 34.6835 9.28934 34.8184 10.013 34.8184C10.9008 34.8184 11.6773 34.6379 12.3426 34.2751C13.008 33.9142 13.6679 33.4293 14.3205 32.8223L17.4376 35.9741C16.5261 36.9785 15.4871 37.8006 14.3205 38.4422C13.1556 39.0893 11.639 39.4102 9.77057 39.4102Z" fill="black"/>
<path d="M19.75 13.4219H25.0728V38.9876H19.75V13.4219Z" fill="black"/>
<path d="M37.8901 39.4083C36.4427 39.4083 35.0993 39.1568 33.8634 38.6555C32.6257 38.1542 31.5574 37.4652 30.6588 36.5902C29.7601 35.7152 29.0528 34.6871 28.5406 33.5077C28.0266 32.3283 27.7695 31.0614 27.7695 29.7089V29.6396C27.7695 28.2852 28.0266 27.0183 28.5406 25.8389C29.0547 24.6595 29.7656 23.6278 30.677 22.74C31.5884 21.8523 32.6603 21.1523 33.8998 20.6383C35.1376 20.1242 36.492 19.8672 37.963 19.8672C39.4104 19.8672 40.752 20.1187 41.9897 20.62C43.2275 21.1231 44.2957 21.8104 45.1943 22.6853C46.093 23.5603 46.7985 24.5884 47.3125 25.7678C47.8265 26.9472 48.0836 28.2141 48.0836 29.5667V29.6359C48.0836 30.9903 47.8265 32.2572 47.3125 33.4348C46.7985 34.6142 46.0875 35.6478 45.1761 36.5337C44.2647 37.4214 43.191 38.1214 41.9551 38.6354C40.7155 39.1513 39.3611 39.4083 37.8901 39.4083ZM37.9612 34.8202C38.7323 34.8202 39.414 34.6853 40.0101 34.4173C40.6062 34.1494 41.1129 33.7811 41.534 33.3145C41.9551 32.8478 42.2741 32.3046 42.4965 31.6867C42.7189 31.0687 42.8301 30.4088 42.8301 29.7089V29.6396C42.8301 28.9396 42.7134 28.2797 42.4801 27.66C42.2468 27.042 41.9077 26.4933 41.4647 26.0139C41.0218 25.5363 40.495 25.1553 39.888 24.8764C39.2809 24.5957 38.6156 24.4553 37.8919 24.4553C37.1208 24.4553 36.4391 24.5902 35.843 24.8582C35.2469 25.1262 34.7402 25.4944 34.3191 25.961C33.898 26.4277 33.5772 26.9709 33.3566 27.5889C33.1342 28.2068 33.023 28.8667 33.023 29.5667V29.6359C33.023 30.3359 33.1397 30.9958 33.373 31.6137C33.6064 32.2335 33.9454 32.7822 34.3884 33.2598C34.8313 33.7392 35.3508 34.1184 35.9469 34.3973C36.543 34.6798 37.2138 34.8202 37.9612 34.8202Z" fill="black"/>
<path d="M56.7691 39.3406C54.7384 39.3406 53.1671 38.7227 52.0588 37.485C50.9505 36.2472 50.3945 34.5429 50.3945 32.3718V20.2188H55.7173V30.6893C55.7173 31.9507 55.998 32.9023 56.5576 33.5439C57.1173 34.1856 57.912 34.5064 58.9383 34.5064C59.9646 34.5064 60.7776 34.1856 61.3718 33.5439C61.9679 32.9023 62.265 31.9507 62.265 30.6893V20.2188H67.5878V38.9906H62.265V36.3293C61.9606 36.7266 61.6289 37.1058 61.2661 37.4667C60.9034 37.8295 60.5005 38.1503 60.0576 38.4292C59.6146 38.7099 59.1242 38.9323 58.5865 39.0946C58.0542 39.2586 57.4472 39.3406 56.7691 39.3406Z" fill="black"/>
<path d="M77.2912 39.3051C76.4746 39.3051 75.7326 39.2176 75.0673 39.0426C74.402 38.8676 73.8296 38.5577 73.352 38.1148C72.8726 37.6718 72.4989 37.094 72.2309 36.3812C71.963 35.6685 71.8281 34.7643 71.8281 33.667V24.7714H69.5859V20.2178H71.8281V15.4219H77.1508V20.2197H81.564V24.7732H77.1508V32.7938C77.1508 34.0078 77.7232 34.6149 78.8662 34.6149C79.7995 34.6149 80.6744 34.3943 81.4929 33.9495V38.2223C80.9333 38.5486 80.3135 38.8129 79.6372 39.0098C78.9609 39.2067 78.1789 39.3051 77.2912 39.3051Z" fill="black"/>
</svg>
